<svg width="16" height="82" viewBox="0 0 16 82" fill="none" xmlns="http://www.w3.org/2000/svg">
<path d="M9 1C9 0.447715 8.55228 0 8 0C7.44772 0 7 0.447715 7 1H9ZM7.29289 81.2071C7.68342 81.5976 8.31658 81.5976 8.70711 81.2071L15.0711 74.8431C15.4616 74.4526 15.4616 73.8195 15.0711 73.4289C14.6805 73.0384 14.0474 73.0384 13.6569 73.4289L8 79.0858L2.34315 73.4289C1.95262 73.0384 1.31946 73.0384 0.928932 73.4289C0.538408 73.8195 0.538408 74.4526 0.928932 74.8431L7.29289 81.2071ZM7 1V80.5H9V1H7Z" fill="white"/>
</svg>
