<svg width="29" height="22" viewBox="0 0 29 22" fill="none" xmlns="http://www.w3.org/2000/svg">
<path d="M29.0003 19.5C29.0003 21.4359 27.4362 21 25.5003 21H3.5C1.56406 21 0 21.4359 0 19.5C0 17.564 1.56406 18 3.5 18H25.5003C27.4362 18 29.0003 17.564 29.0003 19.5Z" fill="white"/>
<path d="M29.0003 19.5C29.0003 21.4359 27.4362 21 25.5003 21H3.5C1.56406 21 0 21.4359 0 19.5C0 17.564 1.56406 18 3.5 18H25.5003C27.4362 18 29.0003 17.564 29.0003 19.5Z" fill="white"/>
<path d="M29.0003 10.542C29.0003 12.478 27.4362 12.0421 25.5003 12.0421H3.5C1.56406 12.0421 0 12.478 0 10.542C0 8.6061 1.56406 9.04203 3.5 9.04203H25.5003C27.4362 9.04203 29.0003 8.6061 29.0003 10.542Z" fill="white"/>
<path d="M29.0003 10.542C29.0003 12.478 27.4362 12.0421 25.5003 12.0421H3.5C1.56406 12.0421 0 12.478 0 10.542C0 8.6061 1.56406 9.04203 3.5 9.04203H25.5003C27.4362 9.04203 29.0003 8.6061 29.0003 10.542Z" fill="white"/>
<path d="M29.0003 1.54203C29.0003 3.47797 27.4362 3.04205 25.5003 3.04205H3.5C1.56406 3.04205 0 3.47797 0 1.54203C0 -0.393904 1.56406 0.0420336 3.5 0.0420336H25.5003C27.4362 0.0420336 29.0003 -0.393904 29.0003 1.54203Z" fill="white"/>
<path d="M29.0003 1.54203C29.0003 3.47797 27.4362 3.04205 25.5003 3.04205H3.5C1.56406 3.04205 0 3.47797 0 1.54203C0 -0.393904 1.56406 0.0420336 3.5 0.0420336H25.5003C27.4362 0.0420336 29.0003 -0.393904 29.0003 1.54203Z" fill="white"/>
</svg>
